<svg width="21" height="20" viewBox="0 0 21 20" fill="none" xmlns="http://www.w3.org/2000/svg">
<path d="M10.9319 16C11.2819 16 11.5779 15.879 11.8199 15.637C12.0619 15.395 12.1826 15.0993 12.1819 14.75C12.1813 14.4007 12.0606 14.1047 11.8199 13.862C11.5793 13.6193 11.2833 13.4987 10.9319 13.5C10.5806 13.5013 10.2849 13.6223 10.0449 13.863C9.80493 14.1037 9.68393 14.3993 9.68193 14.75C9.67993 15.1007 9.80093 15.3967 10.0449 15.638C10.2889 15.8793 10.5846 16 10.9319 16ZM10.0319 12.15H11.8819C11.8819 11.6 11.9446 11.1667 12.0699 10.85C12.1953 10.5333 12.5493 10.1 13.1319 9.55C13.5653 9.11667 13.9069 8.70401 14.1569 8.31201C14.4069 7.92 14.5319 7.44934 14.5319 6.9C14.5319 5.96667 14.1903 5.25001 13.5069 4.75001C12.8236 4.25001 12.0153 4.00001 11.0819 4.00001C10.1319 4.00001 9.36127 4.25001 8.76994 4.75001C8.1786 5.25001 7.76594 5.85001 7.53194 6.55001L9.18193 7.20001C9.26527 6.9 9.45293 6.57501 9.74493 6.22501C10.0369 5.87501 10.4826 5.70001 11.0819 5.70001C11.6153 5.70001 12.0153 5.846 12.2819 6.138C12.5486 6.43 12.6819 6.75067 12.6819 7.10001C12.6819 7.43334 12.5819 7.74601 12.3819 8.038C12.1819 8.33 11.9319 8.60067 11.6319 8.85001C10.8986 9.5 10.4486 9.99167 10.2819 10.325C10.1153 10.6583 10.0319 11.2667 10.0319 12.15ZM10.9819 20C9.5986 20 8.2986 19.7377 7.08194 19.213C5.86527 18.6883 4.80693 17.9757 3.90693 17.075C3.00694 16.1743 2.2946 15.116 1.76993 13.9C1.24527 12.684 0.982602 11.384 0.981935 10C0.981268 8.616 1.24393 7.31601 1.76993 6.10001C2.29593 4.88401 3.00827 3.82567 3.90693 2.92501C4.8056 2.02434 5.86394 1.31201 7.08194 0.788005C8.29994 0.264005 9.59993 0.00133838 10.9819 5.0505e-06C12.3639 -0.00132828 13.6639 0.261339 14.8819 0.788005C16.0999 1.31467 17.1583 2.02701 18.0569 2.92501C18.9556 3.82301 19.6683 4.88134 20.1949 6.10001C20.7216 7.31867 20.9839 8.61867 20.9819 10C20.9799 11.3813 20.7173 12.6813 20.1939 13.9C19.6706 15.1187 18.9583 16.177 18.0569 17.075C17.1556 17.973 16.0973 18.6857 14.8819 19.213C13.6666 19.7403 12.3666 20.0027 10.9819 20ZM10.9819 18C13.2153 18 15.1069 17.225 16.6569 15.675C18.2069 14.125 18.9819 12.2333 18.9819 10C18.9819 7.76667 18.2069 5.875 16.6569 4.32501C15.1069 2.77501 13.2153 2.00001 10.9819 2.00001C8.7486 2.00001 6.85693 2.77501 5.30693 4.32501C3.75693 5.875 2.98193 7.76667 2.98193 10C2.98193 12.2333 3.75693 14.125 5.30693 15.675C6.85693 17.225 8.7486 18 10.9819 18Z" fill="black"/>
</svg>
