<svg width="21" height="18" viewBox="0 0 21 18" fill="none" xmlns="http://www.w3.org/2000/svg">
<path d="M2.93193 18V5.1L0.981934 0.85L2.78193 0L5.13193 5.05H16.7319L19.0819 0L20.8819 0.85L18.9319 5.1V18H2.93193ZM8.93193 11H12.9319C13.2153 11 13.4529 10.904 13.6449 10.712C13.8369 10.52 13.9326 10.2827 13.9319 10C13.9313 9.71733 13.8353 9.48 13.6439 9.288C13.4526 9.096 13.2153 9 12.9319 9H8.93193C8.6486 9 8.41127 9.096 8.21993 9.288C8.0286 9.48 7.9326 9.71733 7.93193 10C7.93127 10.2827 8.02727 10.5203 8.21993 10.713C8.4126 10.9057 8.64993 11.0013 8.93193 11ZM4.93193 16H16.9319V7.05H4.93193V16Z" fill="black"/>
</svg>
