<svg width="26" height="20" viewBox="0 0 26 20" fill="none" xmlns="http://www.w3.org/2000/svg">
<path d="M1.98193 4.21714e-05C1.71672 4.21714e-05 1.46236 0.105399 1.27483 0.292936C1.08729 0.480472 0.981934 0.734826 0.981934 1.00004C0.981934 1.26526 1.08729 1.51961 1.27483 1.70715C1.46236 1.89469 1.71672 2.00004 1.98193 2.00004H4.20193L6.82593 12.5C7.04893 13.39 7.84593 14 8.76293 14H21.2329C22.1359 14 22.9029 13.4 23.1399 12.53L25.7319 3.00004H23.6379L21.2319 12H8.76193L6.13893 1.50004C6.03058 1.06927 5.78081 0.68732 5.42961 0.415356C5.07842 0.143391 4.64611 -0.00285293 4.20193 4.21714e-05H1.98193ZM19.9819 14C18.3369 14 16.9819 15.355 16.9819 17C16.9819 18.645 18.3369 20 19.9819 20C21.6269 20 22.9819 18.645 22.9819 17C22.9819 15.355 21.6269 14 19.9819 14ZM10.9819 14C9.33693 14 7.98193 15.355 7.98193 17C7.98193 18.645 9.33693 20 10.9819 20C12.6269 20 13.9819 18.645 13.9819 17C13.9819 15.355 12.6269 14 10.9819 14ZM13.9819 4.21714e-05V5.00004H10.9819L14.9819 9.00004L18.9819 5.00004H15.9819V4.21714e-05H13.9819ZM10.9819 16C11.5459 16 11.9819 16.436 11.9819 17C11.9819 17.564 11.5459 18 10.9819 18C10.4179 18 9.98193 17.564 9.98193 17C9.98193 16.436 10.4179 16 10.9819 16ZM19.9819 16C20.5459 16 20.9819 16.436 20.9819 17C20.9819 17.564 20.5459 18 19.9819 18C19.4179 18 18.9819 17.564 18.9819 17C18.9819 16.436 19.4179 16 19.9819 16Z" fill="black"/>
</svg>
