<svg width="27" height="23" viewBox="0 0 27 23" fill="none" xmlns="http://www.w3.org/2000/svg">
<path d="M26.5049 19.8128C25.9869 19.3028 19.7099 16.8748 18.5709 16.4168C17.4379 15.9668 16.9859 14.7198 16.9859 14.7198C16.9859 14.7198 16.4759 15.0018 16.4759 14.2098C16.4759 13.4168 16.9859 14.7198 17.4959 11.6618C17.4959 11.6618 18.9109 11.2648 18.6299 7.98179H18.2899C18.2899 7.98179 19.1399 4.47179 18.2899 3.28379C17.4369 2.09579 17.1029 1.30379 15.2299 0.73579C13.3599 0.16879 14.0399 0.28179 12.6819 0.33979C11.3219 0.39679 10.1899 1.13279 10.1899 1.52779C10.1899 1.52779 9.3399 1.58479 9.0019 1.92479C8.6619 2.26479 8.0959 3.84879 8.0959 4.24479C8.0959 4.64079 8.3789 7.30479 8.6619 7.86879L8.3249 7.97879C8.0419 11.2628 9.4569 11.6608 9.4569 11.6608C9.9669 14.7188 10.4769 13.4158 10.4769 14.2088C10.4769 15.0008 9.9669 14.7188 9.9669 14.7188C9.9669 14.7188 9.5139 15.9648 8.3819 16.4158C7.2499 16.8688 0.965903 19.3028 0.454903 19.8118C-0.0550975 20.3318 0.00190245 22.7078 0.00190245 22.7078H12.0379L12.9159 19.2478L12.1359 18.4678L13.4789 17.1228L14.8219 18.4668L14.0419 19.2468L14.9199 22.7068H26.9559C26.9559 22.7068 27.0189 20.3288 26.5029 19.8098L26.5049 19.8128Z" fill="black"/>
</svg>
