<svg width="22" height="22" viewBox="0 0 22 22" fill="none" xmlns="http://www.w3.org/2000/svg">
<path d="M12.7469 1.152C12.3799 1 11.9139 1 10.9819 1C10.0499 1 9.5839 1 9.2169 1.152C8.97408 1.25251 8.75345 1.3999 8.56762 1.58572C8.38179 1.77155 8.23441 1.99218 8.1339 2.235C8.0419 2.458 8.0049 2.719 7.9909 3.098C7.98438 3.37193 7.9085 3.63973 7.77034 3.87635C7.63218 4.11298 7.43625 4.31069 7.2009 4.451C6.9617 4.58477 6.69248 4.65567 6.41843 4.65707C6.14437 4.65847 5.87444 4.59032 5.6339 4.459C5.2979 4.281 5.0549 4.183 4.8139 4.151C4.28821 4.08187 3.7566 4.22431 3.3359 4.547C3.0219 4.79 2.7879 5.193 2.3219 6C1.8559 6.807 1.6219 7.21 1.5709 7.605C1.53653 7.86545 1.55382 8.13012 1.62176 8.38389C1.68971 8.63767 1.80699 8.87556 1.9669 9.084C2.1149 9.276 2.3219 9.437 2.6429 9.639C3.1159 9.936 3.4199 10.442 3.4199 11C3.4199 11.558 3.1159 12.064 2.6429 12.36C2.3219 12.563 2.1139 12.724 1.9669 12.916C1.80699 13.1244 1.68971 13.3623 1.62176 13.6161C1.55382 13.8699 1.53653 14.1345 1.5709 14.395C1.6229 14.789 1.8559 15.193 2.3209 16C2.7879 16.807 3.0209 17.21 3.3359 17.453C3.54433 17.6129 3.78223 17.7302 4.036 17.7981C4.28977 17.8661 4.55444 17.8834 4.8149 17.849C5.0549 17.817 5.2979 17.719 5.6339 17.541C5.87444 17.4097 6.14437 17.3415 6.41843 17.3429C6.69248 17.3443 6.9617 17.4152 7.2009 17.549C7.6839 17.829 7.9709 18.344 7.9909 18.902C8.0049 19.282 8.0409 19.542 8.1339 19.765C8.23441 20.0078 8.38179 20.2284 8.56762 20.4143C8.75345 20.6001 8.97408 20.7475 9.2169 20.848C9.5839 21 10.0499 21 10.9819 21C11.9139 21 12.3799 21 12.7469 20.848C12.9897 20.7475 13.2103 20.6001 13.3962 20.4143C13.582 20.2284 13.7294 20.0078 13.8299 19.765C13.9219 19.542 13.9589 19.282 13.9729 18.902C13.9929 18.344 14.2799 17.828 14.7629 17.549C15.0021 17.4152 15.2713 17.3443 15.5454 17.3429C15.8194 17.3415 16.0893 17.4097 16.3299 17.541C16.6659 17.719 16.9089 17.817 17.1489 17.849C17.4093 17.8834 17.674 17.8661 17.9278 17.7981C18.1816 17.7302 18.4195 17.6129 18.6279 17.453C18.9429 17.211 19.1759 16.807 19.6419 16C20.1079 15.193 20.3419 14.79 20.3929 14.395C20.4273 14.1345 20.41 13.8699 20.342 13.6161C20.2741 13.3623 20.1568 13.1244 19.9969 12.916C19.8489 12.724 19.6419 12.563 19.3209 12.361C19.0868 12.2184 18.8928 12.0187 18.7569 11.7807C18.621 11.5427 18.5477 11.2741 18.5439 11C18.5439 10.442 18.8479 9.936 19.3209 9.64C19.6419 9.437 19.8499 9.276 19.9969 9.084C20.1568 8.87556 20.2741 8.63767 20.342 8.38389C20.41 8.13012 20.4273 7.86545 20.3929 7.605C20.3409 7.211 20.1079 6.807 19.6429 6C19.1759 5.193 18.9429 4.79 18.6279 4.547C18.4195 4.38709 18.1816 4.26981 17.9278 4.20187C17.674 4.13392 17.4093 4.11664 17.1489 4.151C16.9089 4.183 16.6659 4.281 16.3289 4.459C16.0885 4.59014 15.8187 4.6582 15.5449 4.6568C15.271 4.6554 15.002 4.58459 14.7629 4.451C14.5275 4.31069 14.3316 4.11298 14.1935 3.87635C14.0553 3.63973 13.9794 3.37193 13.9729 3.098C13.9589 2.718 13.9229 2.458 13.8299 2.235C13.7294 1.99218 13.582 1.77155 13.3962 1.58572C13.2103 1.3999 12.9897 1.25251 12.7469 1.152Z" stroke="black" stroke-width="1.5"/>
</svg>
